<?xml version="1.0" encoding="UTF-8"?><svg id="Layer_1" xmlns="http://www.w3.org/2000/svg" viewBox="0 0 161.74 34.35"><defs><style>.cls-1{fill:#fff;stroke-width:0px;}</style></defs><polygon class="cls-1" points="3.89 19.72 10.56 19.72 10.56 17.88 3.89 17.88 3.89 12.46 10.95 12.46 10.95 10.6 1.68 10.6 1.68 27.76 11.33 27.76 11.33 25.9 3.89 25.9 3.89 19.72"/><path class="cls-1" d="m23.62,15.44h-2.42l-1.73,2.62c-.41.66-.81,1.3-1.22,2.04h-.08c-.41-.69-.79-1.32-1.25-2.01l-1.76-2.65h-2.5l4.18,6.04-4.38,6.29h2.47l1.78-2.78c.46-.74.89-1.4,1.3-2.14h.05c.43.74.84,1.43,1.32,2.14l1.81,2.78h2.55l-4.33-6.37,4.2-5.96Z"/><path class="cls-1" d="m31.26,16.97c1.22,0,2.06.28,2.6.59l.51-1.73c-.61-.31-1.78-.64-3.11-.64-4.02,0-6.62,2.75-6.62,6.54s2.42,6.29,6.14,6.29c1.66,0,2.95-.41,3.54-.71l-.38-1.68c-.64.28-1.48.61-2.75.61-2.44,0-4.28-1.76-4.28-4.61,0-2.57,1.53-4.66,4.35-4.66Z"/><path class="cls-1" d="m47.25,15.44h-2.24v7.56c0,.41-.08.81-.2,1.15-.41.99-1.45,2.04-2.95,2.04-2.04,0-2.75-1.58-2.75-3.92v-6.83h-2.24v7.21c0,4.33,2.32,5.4,4.25,5.4,2.19,0,3.49-1.3,4.07-2.29h.05l.13,2.01h1.99c-.08-.97-.1-2.09-.1-3.36v-8.96Z"/><path class="cls-1" d="m53,17.86h-.1l-.08-2.42h-1.96c.08,1.15.1,2.39.1,3.85v8.48h2.22v-6.57c0-.38.05-.74.1-1.04.31-1.68,1.43-2.88,3-2.88.31,0,.53.03.76.08v-2.11c-.2-.05-.38-.08-.64-.08-1.5,0-2.85,1.04-3.41,2.7Z"/><path class="cls-1" d="m63.26,20.61c-1.6-.61-2.34-1.07-2.34-2.09,0-.92.74-1.68,2.06-1.68,1.15,0,2.04.41,2.52.71l.56-1.63c-.69-.41-1.78-.76-3.03-.76-2.65,0-4.25,1.63-4.25,3.62,0,1.48,1.04,2.7,3.26,3.49,1.66.61,2.29,1.2,2.29,2.27s-.76,1.83-2.39,1.83c-1.12,0-2.29-.46-2.95-.89l-.56,1.71c.87.51,2.11.84,3.46.84,2.93,0,4.61-1.53,4.61-3.69,0-1.83-1.1-2.9-3.23-3.72Z"/><rect class="cls-1" x="69.37" y="15.44" width="2.24" height="12.33"/><path class="cls-1" d="m70.49,10.57c-.81,0-1.4.61-1.4,1.4s.56,1.38,1.35,1.38c.89,0,1.45-.61,1.43-1.38,0-.79-.54-1.4-1.38-1.4Z"/><path class="cls-1" d="m80.55,15.16c-3.41,0-6.11,2.42-6.11,6.54,0,3.9,2.57,6.34,5.91,6.34,2.98,0,6.14-1.99,6.14-6.54,0-3.77-2.39-6.34-5.93-6.34Zm-.1,11.21c-2.19,0-3.74-2.04-3.74-4.74,0-2.34,1.15-4.79,3.79-4.79s3.69,2.65,3.69,4.74c0,2.78-1.6,4.79-3.74,4.79Z"/><path class="cls-1" d="m95.45,15.16c-2.04,0-3.46,1.15-4.08,2.32h-.05l-.13-2.04h-1.99c.08,1.02.1,2.06.1,3.34v8.99h2.24v-7.41c0-.38.05-.76.15-1.04.38-1.25,1.53-2.29,3-2.29,2.11,0,2.85,1.66,2.85,3.64v7.11h2.24v-7.36c0-4.23-2.65-5.25-4.35-5.25Z"/><path class="cls-1" d="m124.42,15.16c-2.01,0-3.46.89-4.38,2.39h-.05l-.1-2.11h-2.01c.05,1.17.1,2.44.1,4.02v13.34h2.21v-6.7h.05c.74,1.22,2.16,1.94,3.79,1.94,2.9,0,5.6-2.19,5.6-6.62,0-3.74-2.24-6.26-5.22-6.26Zm-.76,11.13c-1.6,0-2.95-1.07-3.36-2.62-.05-.28-.1-.59-.1-.92v-2.11c0-.31.08-.64.15-.92.43-1.68,1.86-2.78,3.39-2.78,2.37,0,3.67,2.11,3.67,4.58,0,2.83-1.38,4.76-3.74,4.76Z"/><path class="cls-1" d="m137.35,15.16c-3.59,0-5.78,2.93-5.78,6.65s2.27,6.21,6.06,6.21c1.96,0,3.31-.41,4.1-.76l-.38-1.6c-.84.36-1.81.64-3.41.64-2.24,0-4.18-1.25-4.23-4.28h8.66c.03-.23.08-.59.08-1.04,0-2.27-1.07-5.81-5.09-5.81Zm-3.62,5.25c.18-1.55,1.17-3.64,3.44-3.64,2.52,0,3.13,2.22,3.11,3.64h-6.54Z"/><path class="cls-1" d="m147.25,17.86h-.1l-.08-2.42h-1.96c.08,1.15.1,2.39.1,3.85v8.48h2.21v-6.57c0-.38.05-.74.1-1.04.31-1.68,1.43-2.88,3-2.88.31,0,.54.03.76.08v-2.11c-.2-.05-.38-.08-.64-.08-1.5,0-2.85,1.04-3.41,2.7Z"/><path class="cls-1" d="m160.06,17.14v-1.71h-3.21v-3.54l-2.19.59v2.95h-1.91v1.71h1.91v6.72c0,1.45.23,2.55.87,3.21.54.61,1.38.94,2.42.94.87,0,1.55-.13,1.99-.31l-.1-1.68c-.28.08-.71.15-1.3.15-1.25,0-1.68-.87-1.68-2.39v-6.65h3.21Z"/><path class="cls-1" d="m118.38,8.83V2.32l-2.12,1.23-3.51,2.02,1.88,1.09-4.16,7.97c-.64,1.09-1.07,1.88-1.56,2.9h-.07c-.46-.92-.95-1.78-1.58-2.9l-2.27-4.03h-2.57l5.04,8.48-5.25,8.69h2.55l2.06-3.77c.9-1.5,1.38-2.42,1.86-3.41h.05c.54.99,1.1,1.93,1.99,3.38l2.19,3.8h2.57l-5.35-8.81,6.25-11.29,2,1.16Z"/></svg>